<svg width="400" height="400" viewBox="0 0 400 400" fill="none" xmlns="http://www.w3.org/2000/svg">
<g clip-path="url(#clip0_93_4)">
<g clip-path="url(#clip1_93_4)">
<path d="M299 178.7L346.108 138.234M346.108 138.234H372.85V125.135H353.485V131.684H364.09M346.108 138.234V122.327L375.78 98.5" stroke="#A61B53"/>
<path d="M407 116L357 158.5M357 158.5H328V172.5H349V165.5H337.5M357 158.5V177.5L325.5 201" stroke="#A61B53"/>
</g>
<g clip-path="url(#clip2_93_4)">
<path d="M99 178.7L146.108 138.234M146.108 138.234H172.85V125.135H153.485V131.684H164.09M146.108 138.234V122.327L175.78 98.5" stroke="#A61B53"/>
<path d="M207 116L157 158.5M157 158.5H128V172.5H149V165.5H137.5M157 158.5V177.5L125.5 201" stroke="#A61B53"/>
</g>
<g clip-path="url(#clip3_93_4)">
<path d="M299 378.7L346.108 338.234M346.108 338.234H372.85V325.135H353.485V331.684H364.09M346.108 338.234V322.327L375.78 298.5" stroke="#A61B53"/>
<path d="M407 316L357 358.5M357 358.5H328V372.5H349V365.5H337.5M357 358.5V377.5L325.5 401" stroke="#A61B53"/>
</g>
<g clip-path="url(#clip4_93_4)">
<path d="M99 378.7L146.108 338.234M146.108 338.234H172.85V325.135H153.485V331.684H164.09M146.108 338.234V322.327L175.78 298.5" stroke="#A61B53"/>
<path d="M207 316L157 358.5M157 358.5H128V372.5H149V365.5H137.5M157 358.5V377.5L125.5 401" stroke="#A61B53"/>
</g>
<g clip-path="url(#clip5_93_4)">
<path d="M299.31 22.5L327.5 -0.5" stroke="#A61B53"/>
<path d="M372.73 101L401 77" stroke="#A61B53"/>
</g>
<g clip-path="url(#clip6_93_4)">
<path d="M99.3098 22.5L127.5 -0.5" stroke="#A61B53"/>
<path d="M172.73 101L201 77" stroke="#A61B53"/>
</g>
<g clip-path="url(#clip7_93_4)">
<path d="M299.31 222.5L327.5 199.5" stroke="#A61B53"/>
<path d="M372.73 301L401 277" stroke="#A61B53"/>
</g>
<g clip-path="url(#clip8_93_4)">
<path d="M99.3098 222.5L127.5 199.5" stroke="#A61B53"/>
<path d="M172.73 301L201 277" stroke="#A61B53"/>
</g>
<g clip-path="url(#clip9_93_4)">
<path d="M199 78.7L246.108 38.2339M246.108 38.2339H272.85V25.1345H253.485V31.6842H264.09M246.108 38.2339V22.3275L275.78 -1.5" stroke="#A61B53"/>
<path d="M307 16L257 58.5M257 58.5H228V72.5H249V65.5H237.5M257 58.5V77.5L225.5 101" stroke="#A61B53"/>
</g>
<g clip-path="url(#clip10_93_4)">
<path d="M-1 78.7L46.1078 38.2339M46.1078 38.2339H72.8503V25.1345H53.485V31.6842H64.0898M46.1078 38.2339V22.3275L75.78 -1.5" stroke="#A61B53"/>
<path d="M107 16L57 58.5M57 58.5H28V72.5H49V65.5H37.5M57 58.5V77.5L25.5 101" stroke="#A61B53"/>
</g>
<g clip-path="url(#clip11_93_4)">
<path d="M199 278.7L246.108 238.234M246.108 238.234H272.85V225.135H253.485V231.684H264.09M246.108 238.234V222.327L275.78 198.5" stroke="#A61B53"/>
<path d="M307 216L257 258.5M257 258.5H228V272.5H249V265.5H237.5M257 258.5V277.5L225.5 301" stroke="#A61B53"/>
</g>
<g clip-path="url(#clip12_93_4)">
<path d="M-1 278.7L46.1078 238.234M46.1078 238.234H72.8503V225.135H53.485V231.684H64.0898M46.1078 238.234V222.327L75.78 198.5" stroke="#A61B53"/>
<path d="M107 216L57 258.5M57 258.5H28V272.5H49V265.5H37.5M57 258.5V277.5L25.5 301" stroke="#A61B53"/>
</g>
<g clip-path="url(#clip13_93_4)">
<path d="M199.31 122.5L227.5 99.5" stroke="#A61B53"/>
<path d="M272.73 201L301 177" stroke="#A61B53"/>
</g>
<g clip-path="url(#clip14_93_4)">
<path d="M-0.690247 122.5L27.4999 99.5" stroke="#A61B53"/>
<path d="M72.73 201L101 177" stroke="#A61B53"/>
</g>
<g clip-path="url(#clip15_93_4)">
<path d="M199.31 322.5L227.5 299.5" stroke="#A61B53"/>
<path d="M272.73 401L301 377" stroke="#A61B53"/>
</g>
<g clip-path="url(#clip16_93_4)">
<path d="M-0.690247 322.5L27.4999 299.5" stroke="#A61B53"/>
<path d="M72.73 401L101 377" stroke="#A61B53"/>
</g>
</g>
<defs>
<clipPath id="clip0_93_4">
<rect width="400" height="400" fill="white"/>
</clipPath>
<clipPath id="clip1_93_4">
<rect width="100" height="100" fill="white" transform="translate(300 100)"/>
</clipPath>
<clipPath id="clip2_93_4">
<rect width="100" height="100" fill="white" transform="translate(100 100)"/>
</clipPath>
<clipPath id="clip3_93_4">
<rect width="100" height="100" fill="white" transform="translate(300 300)"/>
</clipPath>
<clipPath id="clip4_93_4">
<rect width="100" height="100" fill="white" transform="translate(100 300)"/>
</clipPath>
<clipPath id="clip5_93_4">
<rect width="100" height="100" fill="white" transform="translate(300)"/>
</clipPath>
<clipPath id="clip6_93_4">
<rect width="100" height="100" fill="white" transform="translate(100)"/>
</clipPath>
<clipPath id="clip7_93_4">
<rect width="100" height="100" fill="white" transform="translate(300 200)"/>
</clipPath>
<clipPath id="clip8_93_4">
<rect width="100" height="100" fill="white" transform="translate(100 200)"/>
</clipPath>
<clipPath id="clip9_93_4">
<rect width="100" height="100" fill="white" transform="translate(200)"/>
</clipPath>
<clipPath id="clip10_93_4">
<rect width="100" height="100" fill="white"/>
</clipPath>
<clipPath id="clip11_93_4">
<rect width="100" height="100" fill="white" transform="translate(200 200)"/>
</clipPath>
<clipPath id="clip12_93_4">
<rect width="100" height="100" fill="white" transform="translate(0 200)"/>
</clipPath>
<clipPath id="clip13_93_4">
<rect width="100" height="100" fill="white" transform="translate(200 100)"/>
</clipPath>
<clipPath id="clip14_93_4">
<rect width="100" height="100" fill="white" transform="translate(0 100)"/>
</clipPath>
<clipPath id="clip15_93_4">
<rect width="100" height="100" fill="white" transform="translate(200 300)"/>
</clipPath>
<clipPath id="clip16_93_4">
<rect width="100" height="100" fill="white" transform="translate(0 300)"/>
</clipPath>
</defs>
</svg>
